<svg width="609" height="69" viewBox="0 0 609 69" fill="none" xmlns="http://www.w3.org/2000/svg">
<g filter="url(#filter0_i_512_10)">
<path d="M39.1122 20.3338C38.8509 17.6984 37.7292 15.651 35.7472 14.1918C33.7652 12.7325 31.0753 12.0028 27.6776 12.0028C25.3688 12.0028 23.4195 12.3295 21.8295 12.983C20.2396 13.6146 19.0199 14.4967 18.1705 15.6293C17.3428 16.7618 16.929 18.0469 16.929 19.4844C16.8854 20.6823 17.1359 21.7277 17.6804 22.6207C18.2467 23.5137 19.0199 24.2869 20 24.9403C20.9801 25.572 22.1127 26.1274 23.3977 26.6065C24.6828 27.0639 26.0549 27.456 27.5142 27.7827L33.5256 29.2202C36.4441 29.8736 39.1231 30.7448 41.5625 31.8338C44.0019 32.9228 46.1146 34.2623 47.9006 35.8523C49.6866 37.4422 51.0696 39.3153 52.0497 41.4716C53.0516 43.6278 53.5634 46.0999 53.5852 48.8878C53.5634 52.9825 52.518 56.5327 50.4489 59.5384C48.4015 62.5223 45.4394 64.8419 41.5625 66.4972C37.7074 68.1307 33.0573 68.9474 27.6122 68.9474C22.2107 68.9474 17.5062 68.1198 13.4986 66.4645C9.51278 64.8092 6.3982 62.3589 4.15483 59.1136C1.93324 55.8466 0.767992 51.8063 0.659091 46.9929H14.348C14.5005 49.2363 15.143 51.1094 16.2756 52.6122C17.4299 54.0933 18.9654 55.215 20.8821 55.9773C22.8205 56.7178 25.0095 57.0881 27.4489 57.0881C29.8447 57.0881 31.9247 56.7396 33.6889 56.0426C35.4749 55.3456 36.858 54.3764 37.8381 53.1349C38.8182 51.8935 39.3082 50.4669 39.3082 48.8551C39.3082 47.3523 38.8617 46.089 37.9688 45.0653C37.0975 44.0417 35.8125 43.1705 34.1136 42.4517C32.4366 41.733 30.3783 41.0795 27.9389 40.4915L20.6534 38.6619C15.0123 37.2898 10.5582 35.1444 7.29119 32.2259C4.02415 29.3073 2.40152 25.3759 2.4233 20.4318C2.40152 16.3807 3.47964 12.8414 5.65767 9.81392C7.85748 6.78646 10.8741 4.42329 14.7074 2.72443C18.5407 1.02557 22.8968 0.176134 27.7756 0.176134C32.7415 0.176134 37.0758 1.02557 40.7784 2.72443C44.5028 4.42329 47.3996 6.78646 49.4688 9.81392C51.5379 12.8414 52.6051 16.348 52.6705 20.3338H39.1122ZM77.1488 68.9474C73.9471 68.9474 71.0939 68.392 68.5891 67.2812C66.0844 66.1487 64.1024 64.4825 62.6431 62.2827C61.2056 60.0611 60.4869 57.295 60.4869 53.9844C60.4869 51.1965 60.9987 48.8551 62.0224 46.9602C63.046 45.0653 64.44 43.5407 66.2042 42.3864C67.9684 41.232 69.9722 40.3608 72.2156 39.7727C74.4807 39.1847 76.8548 38.7708 79.3377 38.5312C82.2563 38.2263 84.6085 37.9432 86.3945 37.6818C88.1805 37.3987 89.4764 36.9848 90.2823 36.4403C91.0882 35.8958 91.4911 35.09 91.4911 34.0227V33.8267C91.4911 31.7576 90.8377 30.1567 89.5309 29.0241C88.2459 27.8916 86.4163 27.3253 84.0423 27.3253C81.5375 27.3253 79.5446 27.8807 78.0636 28.9915C76.5825 30.0805 75.6024 31.4527 75.1232 33.108L62.2511 32.0625C62.9045 29.0133 64.1895 26.3778 66.1062 24.1562C68.0228 21.9129 70.4949 20.1922 73.5224 18.9943C76.5716 17.7746 80.1 17.1648 84.1076 17.1648C86.8955 17.1648 89.5636 17.4915 92.1119 18.1449C94.6819 18.7983 96.958 19.8111 98.94 21.1832C100.944 22.5554 102.523 24.3196 103.677 26.4759C104.832 28.6103 105.409 31.1695 105.409 34.1534V68H92.2099V61.0412H91.8178C91.012 62.6094 89.9338 63.9924 88.5835 65.1903C87.2331 66.3665 85.6104 67.2921 83.7156 67.9673C81.8207 68.6207 79.6317 68.9474 77.1488 68.9474ZM81.1346 59.3423C83.1819 59.3423 84.9897 58.9394 86.5579 58.1335C88.1261 57.3059 89.3567 56.1951 90.2496 54.8011C91.1426 53.4072 91.5891 51.8281 91.5891 50.0639V44.7386C91.1535 45.0218 90.5546 45.2831 89.7923 45.5227C89.0517 45.7405 88.2132 45.9474 87.2766 46.1435C86.3401 46.3177 85.4035 46.4811 84.467 46.6335C83.5304 46.7642 82.681 46.884 81.9187 46.9929C80.2852 47.2325 78.8585 47.6136 77.6388 48.1364C76.4192 48.6591 75.4717 49.367 74.7965 50.2599C74.1213 51.1312 73.7837 52.2202 73.7837 53.527C73.7837 55.4219 74.4698 56.8703 75.842 57.8722C77.2359 58.8523 79.0001 59.3423 81.1346 59.3423ZM116.206 68V17.8182H129.471V26.6719H130.059C131.104 23.7315 132.846 21.4119 135.286 19.7131C137.725 18.0142 140.644 17.1648 144.042 17.1648C147.483 17.1648 150.412 18.0251 152.83 19.7457C155.248 21.4446 156.859 23.7533 157.665 26.6719H158.188C159.212 23.7969 161.063 21.4991 163.742 19.7784C166.443 18.036 169.633 17.1648 173.314 17.1648C177.997 17.1648 181.798 18.6567 184.716 21.6406C187.657 24.6027 189.127 28.8063 189.127 34.2514V68H175.242V36.9957C175.242 34.2079 174.501 32.1169 173.02 30.723C171.539 29.3291 169.688 28.6321 167.466 28.6321C164.94 28.6321 162.969 29.438 161.553 31.0497C160.137 32.6397 159.429 34.7415 159.429 37.3551V68H145.936V36.7017C145.936 34.2405 145.229 32.2803 143.813 30.821C142.419 29.3617 140.578 28.6321 138.292 28.6321C136.745 28.6321 135.351 29.0241 134.11 29.8082C132.89 30.5705 131.921 31.6487 131.202 33.0426C130.483 34.4148 130.124 36.0265 130.124 37.8778V68H116.206ZM232.301 46.6335V17.8182H246.218V68H232.856V58.8849H232.333C231.201 61.8253 229.317 64.1884 226.681 65.9744C224.068 67.7604 220.877 68.6534 217.109 68.6534C213.755 68.6534 210.804 67.8911 208.255 66.3665C205.707 64.8419 203.714 62.6747 202.277 59.8651C200.861 57.0554 200.142 53.6903 200.12 49.7699V17.8182H214.038V47.2869C214.06 50.2491 214.855 52.5904 216.423 54.3111C217.991 56.0317 220.093 56.892 222.728 56.892C224.405 56.892 225.974 56.5109 227.433 55.7486C228.892 54.9645 230.068 53.8101 230.961 52.2855C231.876 50.7609 232.323 48.8769 232.301 46.6335ZM280.22 68.9801C275.058 68.9801 270.615 67.9347 266.891 65.8438C263.188 63.7311 260.335 60.7472 258.331 56.892C256.327 53.0152 255.325 48.4304 255.325 43.1378C255.325 37.9759 256.327 33.4455 258.331 29.5469C260.335 25.6482 263.155 22.6098 266.793 20.4318C270.452 18.2538 274.742 17.1648 279.665 17.1648C282.975 17.1648 286.057 17.6984 288.911 18.7656C291.786 19.8111 294.29 21.3902 296.425 23.5028C298.581 25.6155 300.258 28.2727 301.456 31.4744C302.654 34.6544 303.253 38.3788 303.253 42.6477V46.4702H260.879V37.8452H290.152C290.152 35.8414 289.716 34.0663 288.845 32.5199C287.974 30.9735 286.765 29.7647 285.219 28.8935C283.694 28.0005 281.919 27.554 279.893 27.554C277.781 27.554 275.908 28.044 274.274 29.0241C272.662 29.9825 271.399 31.2784 270.484 32.9119C269.57 34.5237 269.101 36.3205 269.08 38.3026V46.5028C269.08 48.9858 269.537 51.1312 270.452 52.9389C271.388 54.7467 272.706 56.1406 274.405 57.1207C276.104 58.1009 278.118 58.5909 280.449 58.5909C281.995 58.5909 283.411 58.3731 284.696 57.9375C285.981 57.5019 287.081 56.8485 287.996 55.9773C288.911 55.1061 289.607 54.0388 290.087 52.7756L302.959 53.625C302.305 56.7178 300.966 59.4186 298.94 61.7273C296.937 64.0142 294.345 65.8002 291.165 67.0852C288.007 68.3485 284.358 68.9801 280.22 68.9801ZM326.253 1.09091V68H312.335V1.09091H326.253ZM358.956 68V1.09091H385.746C390.668 1.09091 394.774 1.82055 398.062 3.27983C401.351 4.73911 403.823 6.76468 405.479 9.35653C407.134 11.9266 407.962 14.8887 407.962 18.2429C407.962 20.8565 407.439 23.1544 406.393 25.1364C405.348 27.0966 403.911 28.7083 402.081 29.9716C400.273 31.2131 398.204 32.0952 395.874 32.6179V33.2713C398.422 33.3802 400.807 34.099 403.028 35.4276C405.272 36.7562 407.09 38.6184 408.484 41.0142C409.878 43.3883 410.575 46.2197 410.575 49.5085C410.575 53.0587 409.693 56.2277 407.929 59.0156C406.187 61.7817 403.606 63.9706 400.186 65.5824C396.767 67.1941 392.552 68 387.543 68H358.956ZM373.102 56.4347H384.635C388.577 56.4347 391.452 55.6832 393.26 54.1804C395.068 52.6558 395.972 50.6302 395.972 48.1037C395.972 46.2524 395.525 44.6188 394.632 43.2031C393.739 41.7874 392.465 40.6766 390.81 39.8707C389.176 39.0649 387.227 38.6619 384.962 38.6619H373.102V56.4347ZM373.102 29.0895H383.589C385.528 29.0895 387.249 28.7519 388.751 28.0767C390.276 27.3797 391.474 26.3996 392.345 25.1364C393.238 23.8731 393.685 22.3594 393.685 20.5952C393.685 18.1776 392.824 16.2282 391.104 14.7472C389.405 13.2661 386.987 12.5256 383.851 12.5256H373.102V29.0895ZM433.828 68.9474C430.627 68.9474 427.774 68.392 425.269 67.2812C422.764 66.1487 420.782 64.4825 419.323 62.2827C417.885 60.0611 417.167 57.295 417.167 53.9844C417.167 51.1965 417.678 48.8551 418.702 46.9602C419.726 45.0653 421.12 43.5407 422.884 42.3864C424.648 41.232 426.652 40.3608 428.895 39.7727C431.16 39.1847 433.534 38.7708 436.017 38.5312C438.936 38.2263 441.288 37.9432 443.074 37.6818C444.86 37.3987 446.156 36.9848 446.962 36.4403C447.768 35.8958 448.171 35.09 448.171 34.0227V33.8267C448.171 31.7576 447.517 30.1567 446.211 29.0241C444.926 27.8916 443.096 27.3253 440.722 27.3253C438.217 27.3253 436.224 27.8807 434.743 28.9915C433.262 30.0805 432.282 31.4527 431.803 33.108L418.931 32.0625C419.584 29.0133 420.869 26.3778 422.786 24.1562C424.703 21.9129 427.175 20.1922 430.202 18.9943C433.251 17.7746 436.78 17.1648 440.787 17.1648C443.575 17.1648 446.243 17.4915 448.792 18.1449C451.362 18.7983 453.638 19.8111 455.62 21.1832C457.623 22.5554 459.203 24.3196 460.357 26.4759C461.511 28.6103 462.088 31.1695 462.088 34.1534V68H448.89V61.0412H448.498C447.692 62.6094 446.614 63.9924 445.263 65.1903C443.913 66.3665 442.29 67.2921 440.395 67.9673C438.5 68.6207 436.311 68.9474 433.828 68.9474ZM437.814 59.3423C439.862 59.3423 441.669 58.9394 443.238 58.1335C444.806 57.3059 446.036 56.1951 446.929 54.8011C447.822 53.4072 448.269 51.8281 448.269 50.0639V44.7386C447.833 45.0218 447.234 45.2831 446.472 45.5227C445.731 45.7405 444.893 45.9474 443.956 46.1435C443.02 46.3177 442.083 46.4811 441.147 46.6335C440.21 46.7642 439.361 46.884 438.598 46.9929C436.965 47.2325 435.538 47.6136 434.319 48.1364C433.099 48.6591 432.151 49.367 431.476 50.2599C430.801 51.1312 430.463 52.2202 430.463 53.527C430.463 55.4219 431.15 56.8703 432.522 57.8722C433.916 58.8523 435.68 59.3423 437.814 59.3423ZM472.886 68V17.8182H486.379V26.5739H486.902C487.816 23.4593 489.352 21.107 491.508 19.517C493.664 17.9053 496.147 17.0994 498.957 17.0994C499.654 17.0994 500.405 17.143 501.211 17.2301C502.017 17.3172 502.725 17.437 503.335 17.5895V29.9389C502.681 29.7429 501.778 29.5687 500.623 29.4162C499.469 29.2637 498.413 29.1875 497.454 29.1875C495.407 29.1875 493.577 29.634 491.966 30.527C490.376 31.3982 489.112 32.6179 488.176 34.1861C487.261 35.7543 486.804 37.562 486.804 39.6094V68H472.886ZM523.403 68.9474C520.201 68.9474 517.348 68.392 514.843 67.2812C512.338 66.1487 510.356 64.4825 508.897 62.2827C507.46 60.0611 506.741 57.295 506.741 53.9844C506.741 51.1965 507.253 48.8551 508.276 46.9602C509.3 45.0653 510.694 43.5407 512.458 42.3864C514.222 41.232 516.226 40.3608 518.469 39.7727C520.735 39.1847 523.109 38.7708 525.592 38.5312C528.51 38.2263 530.862 37.9432 532.648 37.6818C534.434 37.3987 535.73 36.9848 536.536 36.4403C537.342 35.8958 537.745 35.09 537.745 34.0227V33.8267C537.745 31.7576 537.092 30.1567 535.785 29.0241C534.5 27.8916 532.67 27.3253 530.296 27.3253C527.791 27.3253 525.799 27.8807 524.317 28.9915C522.836 30.0805 521.856 31.4527 521.377 33.108L508.505 32.0625C509.158 29.0133 510.443 26.3778 512.36 24.1562C514.277 21.9129 516.749 20.1922 519.776 18.9943C522.826 17.7746 526.354 17.1648 530.362 17.1648C533.149 17.1648 535.817 17.4915 538.366 18.1449C540.936 18.7983 543.212 19.8111 545.194 21.1832C547.198 22.5554 548.777 24.3196 549.931 26.4759C551.085 28.6103 551.663 31.1695 551.663 34.1534V68H538.464V61.0412H538.072C537.266 62.6094 536.188 63.9924 534.837 65.1903C533.487 66.3665 531.864 67.2921 529.969 67.9673C528.075 68.6207 525.886 68.9474 523.403 68.9474ZM527.388 59.3423C529.436 59.3423 531.244 58.9394 532.812 58.1335C534.38 57.3059 535.611 56.1951 536.504 54.8011C537.397 53.4072 537.843 51.8281 537.843 50.0639V44.7386C537.407 45.0218 536.808 45.2831 536.046 45.5227C535.306 45.7405 534.467 45.9474 533.531 46.1435C532.594 46.3177 531.657 46.4811 530.721 46.6335C529.784 46.7642 528.935 46.884 528.173 46.9929C526.539 47.2325 525.112 47.6136 523.893 48.1364C522.673 48.6591 521.726 49.367 521.05 50.2599C520.375 51.1312 520.038 52.2202 520.038 53.527C520.038 55.4219 520.724 56.8703 522.096 57.8722C523.49 58.8523 525.254 59.3423 527.388 59.3423ZM576.378 38.9886V68H562.46V17.8182H575.724V26.6719H576.312C577.423 23.7533 579.286 21.4446 581.899 19.7457C584.513 18.0251 587.682 17.1648 591.406 17.1648C594.891 17.1648 597.929 17.9271 600.521 19.4517C603.113 20.9763 605.128 23.1544 606.565 25.9858C608.003 28.7955 608.722 32.1496 608.722 36.0483V68H594.804V38.5312C594.826 35.4602 594.042 33.0644 592.452 31.3438C590.862 29.6013 588.673 28.7301 585.885 28.7301C584.012 28.7301 582.357 29.133 580.919 29.9389C579.503 30.7448 578.393 31.9209 577.587 33.4673C576.803 34.992 576.4 36.8324 576.378 38.9886Z" fill="url(#paint0_linear_512_10)"/>
</g>
<defs>
<filter id="filter0_i_512_10" x="0.65918" y="0.175781" width="608.062" height="72.8047" filterUnits="userSpaceOnUse" color-interpolation-filters="sRGB">
<feFlood flood-opacity="0" result="BackgroundImageFix"/>
<feBlend mode="normal" in="SourceGraphic" in2="BackgroundImageFix" result="shape"/>
<feColorMatrix in="SourceAlpha" type="matrix" values="0 0 0 0 0 0 0 0 0 0 0 0 0 0 0 0 0 0 127 0" result="hardAlpha"/>
<feOffset dy="4"/>
<feGaussianBlur stdDeviation="2"/>
<feComposite in2="hardAlpha" operator="arithmetic" k2="-1" k3="1"/>
<feColorMatrix type="matrix" values="0 0 0 0 0 0 0 0 0 0 0 0 0 0 0 0 0 0 0.25 0"/>
<feBlend mode="normal" in2="shape" result="effect1_innerShadow_512_10"/>
</filter>
<linearGradient id="paint0_linear_512_10" x1="-100.078" y1="52.3024" x2="658.146" y2="57.3679" gradientUnits="userSpaceOnUse">
<stop offset="0.244792" stop-color="#35B4D0"/>
<stop offset="0.53125" stop-color="#7190E5"/>
<stop offset="0.53135" stop-color="#7190E5"/>
<stop offset="0.885417" stop-color="#BA63FF"/>
</linearGradient>
</defs>
</svg>
